<svg xmlns="http://www.w3.org/2000/svg" width="63" height="63" viewBox="0 0 359.8 90"><path fill="#3f78e0" d="m63 43.9-1.5-.9-6.4 11.1h-2.5l8-14-1.5-.8-8.5 14.8H48l10.2-17.7-1.4-.8L46 54h-2.6l12.3-21.4-1.4-.9L41.4 54h-2.6l14.7-25-7-12-1.4.9 6.4 11-1.3 2.3-8-14-1.5.9 8.5 14.8L48 35 37.7 17.4l-1.4.9L47 36.8 45.7 39 33.3 17.6l-1.5.8 12.9 22.3-1.3 2.3L29 17.8H15v1.7h12.8l1.3 2.2H13v1.7h17.2l1.2 2.2H11v1.7h21.4l1.3 2.3H9v1.7h25.7l1.3 2.2H7l-7 12 1.5.8 6.4-11.1h2.5l-8 14 1.5.8 8.5-14.8H15L4.8 52.9l1.4.8L17 35.2h2.5L7.2 56.6l1.4.9 12.9-22.3h2.6L9.5 60.4l7 12 1.4-1-6.4-11 1.3-2.2 8 14 1.5-1-8.5-14.7 1.2-2.3L25.3 72l1.4-.8L16 52.5l1.3-2.2 12.4 21.4 1.5-.8-12.9-22.3 1.3-2.2L34 71.5h14v-1.7H35.1l-1.3-2.2H50V66H32.8l-1.2-2.2H52V62H30.6l-1.3-2.2H54V58H28.3L27 55.8h29L63 44zM26 54.1l-5.4-9.4 5.4-9.5h11l5.4 9.5L37 54H26z"/></svg>