<svg xmlns="http://www.w3.org/2000/svg" width="252" height="63" class="css-1j8o68f" viewBox="0 0 359.8 90">
  <path fill="#3f78e0" d="M0 85h63v5H0z"/>
  <path xmlns="http://www.w3.org/2000/svg" fill="#3f78e0" d="m63 43.9-1.5-.9-6.4 11.1h-2.5l8-14-1.5-.8-8.5 14.8H48l10.2-17.7-1.4-.8L46 54h-2.6l12.3-21.4-1.4-.9L41.4 54h-2.6l14.7-25-7-12-1.4.9 6.4 11-1.3 2.3-8-14-1.5.9 8.5 14.8L48 35 37.7 17.4l-1.4.9L47 36.8 45.7 39 33.3 17.6l-1.5.8 12.9 22.3-1.3 2.3L29 17.8H15v1.7h12.8l1.3 2.2H13v1.7h17.2l1.2 2.2H11v1.7h21.4l1.3 2.3H9v1.7h25.7l1.3 2.2H7l-7 12 1.5.8 6.4-11.1h2.5l-8 14 1.5.8 8.5-14.8H15L4.8 52.9l1.4.8L17 35.2h2.5L7.2 56.6l1.4.9 12.9-22.3h2.6L9.5 60.4l7 12 1.4-1-6.4-11 1.3-2.2 8 14 1.5-1-8.5-14.7 1.2-2.3L25.3 72l1.4-.8L16 52.5l1.3-2.2 12.4 21.4 1.5-.8-12.9-22.3 1.3-2.2L34 71.5h14v-1.7H35.1l-1.3-2.2H50V66H32.8l-1.2-2.2H52V62H30.6l-1.3-2.2H54V58H28.3L27 55.8h29L63 44zM26 54.1l-5.4-9.4 5.4-9.5h11l5.4 9.5L37 54H26z"/>
  <path fill="#3f78e0" d="M92 27.5h-7.2c-.6 0-1 .3-1 .9l.1 3.8c0 .7.6.7 3.3.7h5.1c.1 0 .3.2.3.4 0 .3 0 .6-.2 1l-.2.5-9.2 27c-.2 1 .8 1 1.5 1l15.7.2c.6 0 .8-.5.8-1.1l.2-3.1c0-2-1.2-1.4-3.5-1.4H92a.8.8 0 0 1-.8-1 436 436 0 0 1 6.9-20c.3-1 3.6-8.8 1.8-8.9H92zm20.5 23.2c-.2-5.3-.1-11 0-16.4l-.2-5.1c0-1.8-.7-1.7-1.6-1.8h-3.4c-1 0-1.3.1-1.3 1v19.7a263.7 263.7 0 0 1 .1 14.4c0 .2.2.5.6.5l4.6-.2c.5 0 1-.2 1.2-.8V50.7zM124 27.5h-1.4c-.7 0-1.5 0-1.7.9l-1.3 12.5c-.9 6.6-1.6 13.4-2.4 20 0 1-.2 1.8.8 2h4c.4 0 1 .1 1.1-.5l.1-.7c0-1 1.5-14.7 2-14.7 1 0 3.3 11 4.5 15.2.1.5.4.8 1 .7h3.5c1.2 0 1-.7 1.2-1.7.2-1.1 3-14.2 3.7-14.2.7 0 2.3 15.2 2.4 15.5.3.7 1.1.4 1.7.4h2.7c.8-.1 1.6.2 1.7-.9l-.2-.7-.6-3.8-1.2-7.3c-.4-3.9-1-7.8-1.3-11.7l-1.1-10.3c-.1-1.1-1.3-.7-2.1-.7h-3.3c-.5 0-.7 1-.8 1.5-.3 1.3-3.6 18.4-4.7 18.4s-4.6-15.6-5.2-19c-.1-.8-.6-1-1.3-1zm32.7 35 1 .1c1 0 1.2-3.4 1.3-4 0-.7.2-.7.7-.8 2.3-.3 3.5 0 5.9 0 .5 0 .8.2 1 .6l.3 1.1.8 2.6c.1.6.2.5.8.5h4.3c1 0 .3-2.2.2-2.6-.5-1.3-.6-2.7-1-4l-5.8-27.6c-.3-.9 0-1-.8-1h-5c-.6 0-.6.2-.7 1 0 .6-1.8 8.1-2.5 11.3l-2.5 11.6a131 131 0 0 0-2.3 11.3h4.3zm6.2-10.7h-1c-1.3 0-1.4 0-1-1.3a868.2 868.2 0 0 0 2-8.3l.2.2.5 2.5 1.2 5.3c.4 1.7.2 1.7-.6 1.7H163zm36.3 3.2-.1 6.9c0 .2-.1.4-.3.4l-.6.3c-3 .5-6.5.7-9.4-.3-6.4-2.1-10.7-9.3-10.7-17.5 0-8.8 6.3-17.4 15.6-17.8 1.2 0 5.4-.2 5.3 1.9v4.3c0 .3-.2.5-.5.4-2.7-.3-5.8-1.2-8.4 0a10 10 0 0 0-4.5 5.5 17.6 17.6 0 0 0-.2 11.5c.8 2.9 2.6 6.4 6 6.4.3 0 2 .2 2 0v-6l-.2-1c0-.3-.2-.3-.5-.3h-1.5c-1.8 0-1.4-1.3-1.4-1.7v-2c-.1-.7 0-1.2.7-1.3h.6c2.5-.2 5 0 7.6 0 .4 0 .5.5.5 1v1.2c.2 2.3 0 4.7 0 7V55z"/>
  <path xmlns="http://www.w3.org/2000/svg" fill="#3f78e0" d="m222 27-18 36h36l-18-36zm0 6.7L232.1 54h-13.5l1.5-3h7.2L222 40.4 213.7 57h20l1.4 3H209l13-26.3z"/>
  <path fill="#3f78e0" d="m251 57.8.1 4.4c0 .7 0 .8.7.8h4.3c1 0 .7-1.6.7-2.4l.1-26.6c0-.7.3-1 1.2-1h4.2c1 0 .8-1.7.8-2.9 0-1 .4-2.8-.8-2.8h-16.2c-1.1 0-1.1 1-1.1 3 0 1.4 0 2.7 1 2.7h4.2c.5 0 .8.2 1 .7v.4c0 3.5-.3 19.4-.2 23.7zm22.8 1.6v-9.7c0-.1.2-.4.4-.4s.2.1.3.2l5.3 11c.2.6.7 2.1.9 2.3.2.2.5.2.8.2h5.2c.6 0 .8-.4.6-.9-.4-1.4-3-6.5-3.7-7.7l-3.4-6.9c0-.2.7-.5.8-.7 2.2-2 4.3-4.1 4.7-7.3.5-3.1-.2-6.6-2.3-9a8.4 8.4 0 0 0-6-3.2h-8.2c-.8 0-1.2.4-1.3 1.2v33.6c0 .7 0 .9.6.9h4.6c1 0 .7-1.8.7-3.6zm0-18.6V36c0-.7-.2-2.1.5-2.6.9-.7 2.8 0 3.6.5 2.3 1.7 2.1 5.7.9 7.9a5 5 0 0 1-2.9 2c-.7.2-2 .4-2-.7l-.1-2.3zm22.7 21.8h1c1 0 1.2-3.4 1.3-4.1 0-.6.2-.6.7-.7 2.4-.3 3.6-.1 6 0 .5 0 .8.2.9.6l.3 1 .8 2.7c.2.6.3.5.8.5h4.4c1 0 .3-2.3.2-2.6-.5-1.4-.6-2.8-1-4l-5.8-27.8c-.4-.9 0-1-.8-1-1.7 0-3.4.2-5 0-.7 0-.7.3-.8 1 0 .7-1.8 8.2-2.4 11.4-.9 3.9-1.6 7.7-2.6 11.6-.3 1.4-2.6 11.3-2.3 11.4h4.3zm6.2-10.8h-1c-1.3 0-1.3 0-1-1.4a872 872 0 0 0 2-8.3l.2.2.6 2.5 1.1 5.3c.5 1.7.3 1.7-.6 1.7h-1.3zm35.3 2.4.8-1.9c.5-1.5.6-3 .7-4.6.3-3.3.2-6.7-.6-10-1-4-3.7-7.9-7.7-9.7-1.8-.8-3.9-.9-5.8-.8h-6.2c-.6.1-.9.4-1 1l-.2 1.6.1 13v13.7l-.1 4c0 1.4-.5 2 3.4 2 3.4 0 7-.3 10.3-1.5 3-1.1 5-4 6.3-6.8zm-13.8-5V34c0-1 .1-1 1.2-1 1.3-.1 2.3.2 3.5.7s1.9 1.5 2.5 2.5c1.2 2 1.7 4.1 1.8 6.4v3.8c0 6-3.5 10.3-6.6 10.3-2.1 0-2.5.2-2.5-1.2l.1-4.3v-2zm20.3 4v3.7c0 1.5 0 3 .2 4.5 0 .6.1.7.6.8l3 .3h7.6c1 0 1.6 0 2.6-.2s1.3-.7 1.3-2.1v-2.4c0-1.6-1.1-2-2-2h-5.2c-2.2 0-1.8.3-1.8-2v-6c0-1 .1-1.3 1-1.3h6c1 .1 1.6-.5 1.6-1.5l.1-2-.1-1.5c-.1-.8-.4-1-1.2-1h-6.6c-.6 0-.7 0-.8-.7-.2-1.9 0-4 .2-5.8 0-.7.2-.9 1-1h6.7c.9 0 1.1 0 1.1-1v-4c-.2-.8-.4-.9-1.3-.9l-3.2.1h-8.5c-2 0-2.1 0-2.2 2.4v5.8c0 3.3-.2 15.2-.1 17.9z"/>
</svg>
